<?xml version="1.0" encoding="utf-8"?>
<!-- Svg Vector Icons : http://www.onlinewebfonts.com/icon -->
<!DOCTYPE svg PUBLIC "-//W3C//DTD SVG 1.1//EN" "http://www.w3.org/Graphics/SVG/1.1/DTD/svg11.dtd">
<svg version="1.1" xmlns="http://www.w3.org/2000/svg" xmlns:xlink="http://www.w3.org/1999/xlink" x="0px" y="0px" viewBox="0 0 256 256" enable-background="new 0 0 256 256" xml:space="preserve">
<metadata> Svg Vector Icons : http://www.onlinewebfonts.com/icon </metadata>
<g><g><path fill="#dedeff" d="M192.9,133.5c0,0-25.7-26.2-61.2-26.2c-34.7,0-68.9,26.2-68.9,26.2l-19.2-8V149c3,1,5.2,3.8,5.2,7.2c0,3.4-2.3,6.2-5.3,7.2l5.7,25.4H32.4l5.7-25.5c-2.7-1.2-4.7-3.9-4.7-7.1c0-3.1,1.9-5.8,4.6-7v-26.2l-28-11.7l123.1-55.2L246,112.2L192.9,133.5z M130.3,120.5c35.7,0,55.5,18.9,55.5,18.9v45.7c0,0-20.6,14.7-58.3,14.7c-37.8,0-51.5-14.7-51.5-14.7v-45.7C76,139.4,94.6,120.5,130.3,120.5z M129.6,191.4c24.7,0,44.7-5,44.7-11.2c0-6.2-20-11.2-44.7-11.2c-24.7,0-44.8,5-44.8,11.2C84.8,186.4,104.9,191.4,129.6,191.4z"/></g></g>
</svg>